<svg width="291" height="122" viewBox="0 0 291 122" fill="none" xmlns="http://www.w3.org/2000/svg">
<mask id="path-1-outside-1_50_755" maskUnits="userSpaceOnUse" x="84.0306" y="-0.131714" width="122" height="32" fill="black">
<rect fill="white" x="84.0306" y="-0.131714" width="122" height="32"/>
<path d="M86.0306 1.86829H94.5172V29.4813H86.0306V1.86829Z"/>
<path d="M195.486 1.86829H203.973V29.4813H195.486V1.86829Z"/>
<path d="M203.973 1.86829V9.38193L86.0306 9.38193L86.0306 1.86829H203.973Z"/>
</mask>
<path d="M86.0306 1.86829H94.5172V29.4813H86.0306V1.86829Z" fill="white" style="fill:white;fill-opacity:1;"/>
<path d="M195.486 1.86829H203.973V29.4813H195.486V1.86829Z" fill="white" style="fill:white;fill-opacity:1;"/>
<path d="M203.973 1.86829V9.38193L86.0306 9.38193L86.0306 1.86829H203.973Z" fill="white" style="fill:white;fill-opacity:1;"/>
<path d="M86.0306 1.86829V-5.00679e-06H84.1623L84.1623 1.86829L86.0306 1.86829ZM94.5172 1.86829H96.3855V-5.00679e-06H94.5172V1.86829ZM94.5172 29.4813V31.3496H96.3855V29.4813H94.5172ZM86.0306 29.4813H84.1623V31.3496H86.0306V29.4813ZM195.486 1.86829V-5.00679e-06H193.618V1.86829H195.486ZM203.973 1.86829H205.841V-5.00679e-06H203.973V1.86829ZM203.973 29.4813V31.3496H205.841V29.4813H203.973ZM195.486 29.4813H193.618V31.3496H195.486V29.4813ZM203.973 9.38193V11.2502H205.841V9.38193H203.973ZM86.0306 9.38193L84.1623 9.38193L84.1623 11.2502L86.0306 11.2502L86.0306 9.38193ZM86.0306 3.73658H94.5172V-5.00679e-06H86.0306V3.73658ZM92.6489 1.86829V29.4813H96.3855V1.86829H92.6489ZM94.5172 27.613H86.0306V31.3496H94.5172V27.613ZM87.8989 29.4813V1.86829H84.1623V29.4813H87.8989ZM195.486 3.73658H203.973V-5.00679e-06H195.486V3.73658ZM202.104 1.86829V29.4813H205.841V1.86829H202.104ZM203.973 27.613H195.486V31.3496H203.973V27.613ZM197.354 29.4813V1.86829H193.618V29.4813H197.354ZM202.104 1.86829V9.38193H205.841V1.86829H202.104ZM203.973 7.51364L86.0306 7.51364L86.0306 11.2502L203.973 11.2502V7.51364ZM87.8989 9.38192L87.8989 1.86828L84.1623 1.86829L84.1623 9.38193L87.8989 9.38192ZM86.0306 3.73658H203.973V-5.00679e-06H86.0306V3.73658Z" fill="white" style="fill:white;fill-opacity:1;" mask="url(#path-1-outside-1_50_755)"/>
<mask id="path-3-outside-2_50_755" maskUnits="userSpaceOnUse" x="84.0306" y="91.8105" width="122" height="30" fill="black">
<rect fill="white" x="84.0306" y="91.8105" width="122" height="30"/>
<path fill-rule="evenodd" clip-rule="evenodd" d="M86.0306 119.81H94.5173V119.81L195.486 119.81H203.973V93.8342H195.486V112.742L94.5173 112.742V93.8342H86.0306V112.742H86.0306L86.0306 119.81L86.0306 119.81V119.81Z"/>
</mask>
<path fill-rule="evenodd" clip-rule="evenodd" d="M86.0306 119.81H94.5173V119.81L195.486 119.81H203.973V93.8342H195.486V112.742L94.5173 112.742V93.8342H86.0306V112.742H86.0306L86.0306 119.81L86.0306 119.81V119.81Z" fill="white" style="fill:white;fill-opacity:1;"/>
<path d="M94.5173 119.81H96.3855V121.679H94.5173V119.81ZM86.0306 119.81V121.679H84.1623V119.81H86.0306ZM94.5173 119.81H92.649V117.942L94.5173 117.942V119.81ZM195.486 119.81V117.942V117.942V119.81ZM203.973 119.81H205.841V121.679H203.973V119.81ZM203.973 93.8342V91.9659H205.841V93.8342H203.973ZM195.486 93.8342H193.618V91.9659H195.486V93.8342ZM195.486 112.742H197.354V114.61H195.486V112.742ZM94.5173 112.742V114.61L92.649 114.61V112.742H94.5173ZM94.5173 93.8342V91.9659H96.3855V93.8342H94.5173ZM86.0306 93.8342H84.1623V91.9659H86.0306V93.8342ZM86.0306 112.742H87.8989V114.61H86.0306V112.742ZM86.0306 112.742H84.1623L84.1623 110.874H86.0306V112.742ZM86.0306 119.81L86.0306 121.679L84.1623 121.679V119.81L86.0306 119.81ZM86.0306 119.81L86.0306 117.942H87.8989V119.81H86.0306ZM94.5173 121.679H86.0306V117.942H94.5173V121.679ZM96.3855 119.81V119.81H92.649V119.81H96.3855ZM94.5173 117.942L195.486 117.942V121.679L94.5173 121.679V117.942ZM195.486 117.942H203.973V121.679H195.486V117.942ZM205.841 93.8342V119.81H202.104V93.8342H205.841ZM195.486 91.9659H203.973V95.7025H195.486V91.9659ZM193.618 112.742V93.8342H197.354V112.742H193.618ZM195.486 114.61L94.5173 114.61V110.874L195.486 110.874V114.61ZM96.3855 93.8342V112.742H92.649V93.8342H96.3855ZM86.0306 91.9659H94.5173V95.7025H86.0306V91.9659ZM84.1623 112.742V93.8342H87.8989V112.742H84.1623ZM86.0306 114.61H86.0306V110.874H86.0306V114.61ZM87.8989 112.742L87.8989 119.81L84.1623 119.81L84.1623 112.742H87.8989ZM86.0306 117.942H86.0306L86.0306 121.679H86.0306L86.0306 117.942ZM84.1623 119.81V119.81H87.8989V119.81H84.1623Z" fill="white" style="fill:white;fill-opacity:1;" mask="url(#path-3-outside-2_50_755)"/>
<path d="M0 44.4901H18.3825C25.713 44.4901 31.239 49.3958 31.239 56.7263C31.239 64.0567 25.713 68.737 18.3825 68.737H7.04851V75.6727H0V44.4901ZM7.04851 50.9183V62.3087H18.1006C21.7094 62.3087 24.1905 60.3351 24.1905 56.7263C24.1905 53.1174 21.7094 50.9183 18.1006 50.9183H7.04851Z" fill="white" style="fill:white;fill-opacity:1;"/>
<path d="M53.7788 50.7491L47.9708 64.7898H61.8423L56.2035 50.7491H53.7788ZM49.3805 44.4901H60.8273L74.0785 75.6727H66.6353L64.6053 70.9361H45.377L43.347 75.6727H35.791L49.3805 44.4901Z" fill="white" style="fill:white;fill-opacity:1;"/>
<path d="M81.9874 44.4901H100.37C107.7 44.4901 113.226 49.3958 113.226 56.7263C113.226 61.5193 110.858 65.1281 107.193 67.1017L111.986 75.6727H104.317L100.652 68.737H89.0359V75.6727H81.9874V44.4901ZM89.0359 50.9183V62.3087H100.088C103.697 62.3087 106.178 60.3351 106.178 56.7263C106.178 53.1174 103.697 50.9183 100.088 50.9183H89.0359Z" fill="white" style="fill:white;fill-opacity:1;"/>
<path d="M118.935 44.4901H151.358V50.8055H138.671V75.6727H131.622V50.8055H118.935V44.4901Z" fill="white" style="fill:white;fill-opacity:1;"/>
<path d="M159.239 44.4901H166.288V75.6727H159.239V44.4901Z" fill="white" style="fill:white;fill-opacity:1;"/>
<path d="M175.288 44.4901H191.358C199.929 44.4901 208.162 50.6928 208.162 60.0532C208.162 69.4136 199.929 75.6727 191.358 75.6727H175.288V44.4901ZM182.336 50.8619V69.2444H191.358C196.997 69.2444 201.113 65.4101 201.113 60.0532C201.113 54.6963 196.997 50.8619 191.358 50.8619H182.336Z" fill="white" style="fill:white;fill-opacity:1;"/>
<path d="M223.209 60.1096C223.209 66.5378 227.777 70.4286 233.641 70.4286C239.505 70.4286 244.073 66.5378 244.073 60.1096C244.073 53.6813 239.505 49.7905 233.641 49.7905C227.777 49.7905 223.209 53.6813 223.209 60.1096ZM251.121 60.1096C251.121 69.9211 243.114 76.4621 233.641 76.4621C224.168 76.4621 216.161 69.9211 216.161 60.1096C216.161 50.298 224.168 43.757 233.641 43.757C243.114 43.757 251.121 50.298 251.121 60.1096Z" fill="white" style="fill:white;fill-opacity:1;"/>
<path d="M289.879 48.3808L286.495 53.5686C282.83 51.0311 279.109 50.0161 274.146 50.0161C268.057 50.0161 266.59 51.595 266.59 53.343C266.59 55.1474 268.226 55.5985 270.65 55.8805L280.011 56.9518C286.665 57.7413 290.781 60.5607 290.781 66.3123C290.781 73.3044 283.958 76.4621 274.598 76.4621C268.226 76.4621 263.433 75.1088 258.471 71.4436L261.797 65.9739C266.083 68.9625 270.256 70.3158 275.387 70.3158C280.349 70.3158 283.958 69.0753 283.958 66.425C283.958 64.7334 283.056 63.8876 280.406 63.6056L269.917 62.4215C263.545 61.6884 259.655 59.2074 259.655 53.3994C259.655 46.802 266.196 43.757 274.146 43.757C279.954 43.757 285.029 44.772 289.879 48.3808Z" fill="white" style="fill:white;fill-opacity:1;"/>
</svg>
