<svg width="212" height="88" viewBox="0 0 212 88" fill="none" xmlns="http://www.w3.org/2000/svg">
<mask id="path-1-outside-1_50_765" maskUnits="userSpaceOnUse" x="61.6418" y="0" width="88" height="23" fill="black">
<rect fill="white" x="61.6418" width="88" height="23"/>
<path d="M62.6418 1H68.8212V21.106H62.6418V1Z"/>
<path d="M142.34 1H148.519V21.106H142.34V1Z"/>
<path d="M148.519 1V6.47094L62.6418 6.47093L62.6418 1H148.519Z"/>
</mask>
<path d="M62.6418 1H68.8212V21.106H62.6418V1Z" fill="white" style="fill:white;fill-opacity:1;"/>
<path d="M142.34 1H148.519V21.106H142.34V1Z" fill="white" style="fill:white;fill-opacity:1;"/>
<path d="M148.519 1V6.47094L62.6418 6.47093L62.6418 1H148.519Z" fill="white" style="fill:white;fill-opacity:1;"/>
<path d="M62.6418 1V0H61.6418L61.6418 1L62.6418 1ZM68.8212 1H69.8212V0H68.8212V1ZM68.8212 21.106V22.106H69.8212V21.106H68.8212ZM62.6418 21.106H61.6418V22.106H62.6418V21.106ZM142.34 1V0H141.34V1H142.34ZM148.519 1H149.519V0H148.519V1ZM148.519 21.106V22.106H149.519V21.106H148.519ZM142.34 21.106H141.34V22.106H142.34V21.106ZM148.519 6.47094V7.47094H149.519V6.47094H148.519ZM62.6418 6.47093L61.6418 6.47094L61.6418 7.47093H62.6418L62.6418 6.47093ZM62.6418 2H68.8212V0H62.6418V2ZM67.8212 1V21.106H69.8212V1H67.8212ZM68.8212 20.106H62.6418V22.106H68.8212V20.106ZM63.6418 21.106V1H61.6418V21.106H63.6418ZM142.34 2H148.519V0H142.34V2ZM147.519 1V21.106H149.519V1H147.519ZM148.519 20.106H142.34V22.106H148.519V20.106ZM143.34 21.106V1H141.34V21.106H143.34ZM147.519 1V6.47094H149.519V1H147.519ZM148.519 5.47094L62.6418 5.47093L62.6418 7.47093L148.519 7.47094V5.47094ZM63.6418 6.47093L63.6418 0.999996L61.6418 1L61.6418 6.47094L63.6418 6.47093ZM62.6418 2H148.519V0H62.6418V2Z" fill="white" style="fill:white;fill-opacity:1;" mask="url(#path-1-outside-1_50_765)"/>
<mask id="path-3-outside-2_50_765" maskUnits="userSpaceOnUse" x="61.6418" y="66.8777" width="88" height="21" fill="black">
<rect fill="white" x="61.6418" y="66.8777" width="88" height="21"/>
<path fill-rule="evenodd" clip-rule="evenodd" d="M62.6418 86.8777H68.8212V86.8777L142.34 86.8777H148.519L148.519 81.731L148.519 67.9635H142.34V81.731L68.8212 81.731V67.9635H62.6418V86.8777Z"/>
</mask>
<path fill-rule="evenodd" clip-rule="evenodd" d="M62.6418 86.8777H68.8212V86.8777L142.34 86.8777H148.519L148.519 81.731L148.519 67.9635H142.34V81.731L68.8212 81.731V67.9635H62.6418V86.8777Z" fill="white" style="fill:white;fill-opacity:1;"/>
<path d="M68.8212 86.8777H69.8212V87.8777H68.8212V86.8777ZM62.6418 86.8777V87.8777H61.6418V86.8777H62.6418ZM68.8212 86.8777H67.8212V85.8777H68.8212V86.8777ZM142.34 86.8777V85.8777V85.8777V86.8777ZM148.519 86.8777L149.519 86.8777V87.8777H148.519V86.8777ZM148.519 81.731L149.519 81.731V81.731L148.519 81.731ZM148.519 67.9635V66.9635H149.519V67.9635H148.519ZM142.34 67.9635H141.34V66.9635H142.34V67.9635ZM142.34 81.731H143.34V82.731H142.34V81.731ZM68.8212 81.731V82.731H67.8212V81.731H68.8212ZM68.8212 67.9635V66.9635H69.8212V67.9635H68.8212ZM62.6418 67.9635H61.6418V66.9635H62.6418V67.9635ZM68.8212 87.8777H62.6418V85.8777H68.8212V87.8777ZM69.8212 86.8777V86.8777H67.8212V86.8777H69.8212ZM68.8212 85.8777L142.34 85.8777V87.8777L68.8212 87.8777V85.8777ZM142.34 85.8777H148.519V87.8777H142.34V85.8777ZM147.519 86.8777L147.519 81.731L149.519 81.731L149.519 86.8777L147.519 86.8777ZM149.519 67.9635L149.519 81.731L147.519 81.731L147.519 67.9635H149.519ZM142.34 66.9635H148.519V68.9635H142.34V66.9635ZM141.34 81.731V67.9635H143.34V81.731H141.34ZM142.34 82.731L68.8212 82.731V80.731L142.34 80.731V82.731ZM69.8212 67.9635V81.731H67.8212V67.9635H69.8212ZM62.6418 66.9635H68.8212V68.9635H62.6418V66.9635ZM61.6418 86.8777V67.9635H63.6418V86.8777H61.6418Z" fill="white" style="fill:white;fill-opacity:1;" mask="url(#path-3-outside-2_50_765)"/>
<path d="M0 32.0344H13.3849C18.7225 32.0344 22.7462 35.6064 22.7462 40.944C22.7462 46.2815 18.7225 49.6893 13.3849 49.6893H5.13226V54.7395H0V32.0344ZM5.13226 36.715V45.0087H13.1796C15.8074 45.0087 17.6139 43.5717 17.6139 40.944C17.6139 38.3163 15.8074 36.715 13.1796 36.715H5.13226Z" fill="white" style="fill:white;fill-opacity:1;"/>
<path d="M39.1582 36.5918L34.9292 46.8153H45.0295L40.9237 36.5918H39.1582ZM35.9556 32.0344H44.2904L53.9391 54.7395H48.5194L47.0413 51.2906H33.0405L31.5624 54.7395H26.0606L35.9556 32.0344Z" fill="white" style="fill:white;fill-opacity:1;"/>
<path d="M59.6978 32.0344H73.0827C78.4202 32.0344 82.4439 35.6064 82.4439 40.944C82.4439 44.4339 80.7195 47.0616 78.0507 48.4986L81.5407 54.7395H75.9568L73.288 49.6893H64.83V54.7395H59.6978V32.0344ZM64.83 36.715V45.0087H72.8774C75.5051 45.0087 77.3117 43.5717 77.3117 40.944C77.3117 38.3163 75.5051 36.715 72.8774 36.715H64.83Z" fill="white" style="fill:white;fill-opacity:1;"/>
<path d="M86.6004 32.0344H110.209V36.6329H100.971V54.7395H95.8385V36.6329H86.6004V32.0344Z" fill="white" style="fill:white;fill-opacity:1;"/>
<path d="M115.947 32.0344H121.08V54.7395H115.947V32.0344Z" fill="white" style="fill:white;fill-opacity:1;"/>
<path d="M127.633 32.0344H139.334C145.575 32.0344 151.57 36.5508 151.57 43.3664C151.57 50.182 145.575 54.7395 139.334 54.7395H127.633V32.0344ZM132.765 36.6739V50.0589H139.334C143.44 50.0589 146.437 47.2669 146.437 43.3664C146.437 39.4659 143.44 36.6739 139.334 36.6739H132.765Z" fill="white" style="fill:white;fill-opacity:1;"/>
<path d="M162.526 43.4074C162.526 48.0881 165.852 50.9211 170.122 50.9211C174.392 50.9211 177.718 48.0881 177.718 43.4074C177.718 38.7268 174.392 35.8938 170.122 35.8938C165.852 35.8938 162.526 38.7268 162.526 43.4074ZM182.85 43.4074C182.85 50.5516 177.02 55.3143 170.122 55.3143C163.224 55.3143 157.394 50.5516 157.394 43.4074C157.394 36.2633 163.224 31.5006 170.122 31.5006C177.02 31.5006 182.85 36.2633 182.85 43.4074Z" fill="white" style="fill:white;fill-opacity:1;"/>
<path d="M211.07 34.8674L208.607 38.6447C205.938 36.7971 203.228 36.0581 199.615 36.0581C195.181 36.0581 194.114 37.2077 194.114 38.4805C194.114 39.7943 195.304 40.1228 197.07 40.3281L203.885 41.1082C208.73 41.683 211.727 43.7359 211.727 47.9238C211.727 53.015 206.759 55.3143 199.944 55.3143C195.304 55.3143 191.814 54.3289 188.201 51.6601L190.624 47.6775C193.744 49.8536 196.782 50.839 200.519 50.839C204.132 50.839 206.759 49.9357 206.759 48.006C206.759 46.7742 206.102 46.1583 204.173 45.953L196.536 45.0908C191.896 44.5571 189.063 42.7505 189.063 38.5215C189.063 33.7177 193.826 31.5006 199.615 31.5006C203.844 31.5006 207.539 32.2397 211.07 34.8674Z" fill="white" style="fill:white;fill-opacity:1;"/>
</svg>
